<?xml version="1.0" encoding="UTF-8" standalone="no"?>
<!-- Created with Inkscape (http://www.inkscape.org/) -->

<svg
   xmlns:dc="http://purl.org/dc/elements/1.1/"
   xmlns:cc="http://creativecommons.org/ns#"
   xmlns:rdf="http://www.w3.org/1999/02/22-rdf-syntax-ns#"
   xmlns:svg="http://www.w3.org/2000/svg"
   xmlns="http://www.w3.org/2000/svg"
   xmlns:xlink="http://www.w3.org/1999/xlink"
   xmlns:sodipodi="http://sodipodi.sourceforge.net/DTD/sodipodi-0.dtd"
   xmlns:inkscape="http://www.inkscape.org/namespaces/inkscape"
   width="1366"
   height="768"
   viewBox="0 0 1365.9999 768.00001"
   id="svg4153"
   version="1.1"
   inkscape:version="0.91 r13725"
   inkscape:export-filename="/home/kudakwashe/rect48621.png"
   inkscape:export-xdpi="187.10001"
   inkscape:export-ydpi="187.10001"
   sodipodi:docname="kde_experience_freedom_by_kudapara.svg">
  <defs
     id="defs4155">
    <linearGradient
       inkscape:collect="always"
       id="linearGradient4892">
      <stop
         style="stop-color:#115b57;stop-opacity:1"
         offset="0"
         id="stop4894" />
      <stop
         style="stop-color:#4be1c8;stop-opacity:1"
         offset="1"
         id="stop4896" />
    </linearGradient>
    <linearGradient
       inkscape:collect="always"
       xlink:href="#linearGradient4892"
       id="linearGradient4898"
       x1="4869.5508"
       y1="1075.0087"
       x2="-839.36139"
       y2="-2103.1204"
       gradientUnits="userSpaceOnUse" />
  </defs>
  <sodipodi:namedview
     id="base"
     pagecolor="#ffffff"
     bordercolor="#666666"
     borderopacity="1.0"
     inkscape:pageopacity="0.0"
     inkscape:pageshadow="2"
     inkscape:zoom="0.22627417"
     inkscape:cx="1357.1505"
     inkscape:cy="403.02097"
     inkscape:document-units="px"
     inkscape:current-layer="layer1"
     showgrid="false"
     inkscape:window-width="1366"
     inkscape:window-height="718"
     inkscape:window-x="0"
     inkscape:window-y="26"
     inkscape:window-maximized="1"
     units="px"
     borderlayer="true" />
  <metadata
     id="metadata4158">
    <rdf:RDF>
      <cc:Work
         rdf:about="">
        <dc:format>image/svg+xml</dc:format>
        <dc:type
           rdf:resource="http://purl.org/dc/dcmitype/StillImage" />
        <dc:title></dc:title>
      </cc:Work>
    </rdf:RDF>
  </metadata>
  <g
     inkscape:label="Layer 1"
     inkscape:groupmode="layer"
     id="layer1"
     transform="translate(0,-284.36207)">
    <text
       xml:space="preserve"
       style="font-style:normal;font-weight:normal;font-size:75px;line-height:125%;font-family:sans-serif;letter-spacing:8.90999985px;word-spacing:0px;fill:#000000;fill-opacity:1;stroke:none;stroke-width:1px;stroke-linecap:butt;stroke-linejoin:miter;stroke-opacity:1"
       x="-1868.75"
       y="502.36215"
       id="text5084"
       sodipodi:linespacing="125%"><tspan
         sodipodi:role="line"
         id="tspan5086"
         x="-1868.75"
         y="502.36215" /></text>
    <g
       id="g5189"
       inkscape:export-xdpi="24.805288"
       inkscape:export-ydpi="24.805288"
       transform="matrix(0.28050935,0,0,0.27905268,3.5026926,752.585)"
       style="stroke:none">
      <rect
         y="-1673.576"
         x="-8.1129112"
         height="2766.5027"
         width="4883.9727"
         id="rect4854"
         style="opacity:1;fill:url(#linearGradient4898);fill-opacity:1;fill-rule:evenodd;stroke:none;stroke-width:73.26534271;stroke-linejoin:miter;stroke-miterlimit:4;stroke-dasharray:none;stroke-opacity:0.17058824" />
      <g
         id="g5167"
         style="stroke:none">
        <g
           id="g5156"
           style="stroke:none">
          <path
             d="m 1503.297,-145.38721 q 0,2.25 -2.25,3.75 -1.875,1.5 -3.75,1.5 -3,0 -4.5,-2.25 l -100.875,-141 -55.5,55.5 0,79.5 q 0,2.25 -1.875,4.125 -1.875,1.5 -4.125,1.5 -2.25,0 -4.125,-1.5 -1.875,-1.5 -1.875,-4.125 l 0,-284.25 q 0,-2.625 1.875,-4.125 1.875,-1.5 4.125,-1.5 2.25,0 4.125,1.875 1.875,1.5 1.875,3.75 l 0,138 143.625,-144 q 1.875,-1.875 3.75,-1.875 2.25,0 4.125,2.25 1.875,1.875 1.875,3.75 0,2.25 -1.875,4.125 l -151.5,151.875 0,34.5 q 1.5,-1.5 6,-6 4.5,-4.875 10.125,-10.875 5.625,-6 12,-12.375 6.75,-6.375 12.375,-11.625 5.625,-5.625 9.75,-9 4.125,-3.75 5.25,-3.75 3.375,0 5.25,2.25 2.25,3.375 10.875,15.75 9,12 20.625,28.125 12,16.125 25.125,34.125 13.125,18 24,33.75 11.25,15.375 18.375,26.25 7.125,10.5 7.125,12 z"
             style="font-style:normal;font-variant:normal;font-weight:normal;font-stretch:normal;font-size:medium;line-height:125%;font-family:Anders;-inkscape-font-specification:Anders;letter-spacing:8.90999985px;word-spacing:0px;fill:#ffffff;fill-opacity:1;stroke:none;stroke-width:10;stroke-linecap:butt;stroke-linejoin:miter;stroke-miterlimit:4;stroke-dasharray:none;stroke-opacity:1"
             id="path5089"
             inkscape:connector-curvature="0" />
          <path
             d="m 1818.1015,-290.51221 q 0,31.125 -12,58.5 -11.625,27 -31.875,47.25 -20.25,20.25 -47.625,31.875 -27.375,11.625 -58.125,12 l -49.125,0.375 q -2.625,0 -4.5,-1.875 -1.5,-1.875 -1.5,-4.5 l 0,-281.25 -25.875,0 0,282 q 0,6 -6,6 -2.625,0 -4.125,-1.875 -1.5,-1.875 -1.5,-4.125 l 0,-287.625 q 0,-2.625 1.5,-4.5 1.875,-1.875 4.5,-1.875 l 86.625,0 q 30.75,0 58.125,12 27.375,11.625 47.625,31.875 20.25,20.25 31.875,47.625 12,27.375 12,58.125 z m -11.625,0 q 0,-28.5 -10.875,-53.625 -10.875,-25.5 -29.625,-43.875 -18.375,-18.75 -43.875,-29.625 -25.125,-10.875 -53.625,-10.875 -10.875,0 -21.75,0.375 -10.875,0 -21.75,0 l 0,275.625 q 10.875,0 21.75,0 10.875,0 21.75,-0.375 28.5,-0.375 53.625,-11.25 25.125,-10.875 43.875,-29.25 18.75,-18.75 29.625,-43.5 10.875,-25.125 10.875,-53.625 z"
             style="font-style:normal;font-variant:normal;font-weight:normal;font-stretch:normal;font-size:medium;line-height:125%;font-family:Anders;-inkscape-font-specification:Anders;letter-spacing:8.90999985px;word-spacing:0px;fill:#ffffff;fill-opacity:1;stroke:none;stroke-width:10;stroke-linecap:butt;stroke-linejoin:miter;stroke-miterlimit:4;stroke-dasharray:none;stroke-opacity:1"
             id="path5091"
             inkscape:connector-curvature="0" />
          <path
             d="m 2090.9881,-146.51221 q 0,2.25 -1.5,4.5 -1.5,1.875 -4.125,1.875 l -183.75,0 q -2.625,0 -4.5,-1.875 -1.5,-1.875 -1.5,-4.5 l 0,-288 q 0,-2.625 1.875,-4.125 1.875,-1.5 4.125,-1.5 l 183.75,0 q 2.25,0 3.75,1.875 1.875,1.5 1.875,3.75 0,2.25 -1.875,4.125 -1.5,1.5 -3.75,1.5 l -178.5,0 0,116.625 139.125,0 q 2.25,0 3.75,1.875 1.875,1.5 1.875,3.75 0,2.25 -1.875,4.125 -1.5,1.5 -3.75,1.5 l -138.375,0 -0.375,25.5 140.25,0 q 6,0 6,6 0,2.25 -1.875,4.125 -1.875,1.875 -4.125,1.875 l -140.625,0 0,110.625 178.5,0 q 2.25,0 3.75,2.25 1.875,1.875 1.875,4.125 z"
             style="font-style:normal;font-variant:normal;font-weight:normal;font-stretch:normal;font-size:medium;line-height:125%;font-family:Anders;-inkscape-font-specification:Anders;letter-spacing:8.90999985px;word-spacing:0px;fill:#ffffff;fill-opacity:1;stroke:none;stroke-width:10;stroke-linecap:butt;stroke-linejoin:miter;stroke-miterlimit:4;stroke-dasharray:none;stroke-opacity:1"
             id="path5093"
             inkscape:connector-curvature="0" />
          <path
             d="m 2481.8628,-367.76221 q 0,15 -6,28.125 -5.625,13.125 -15.375,23.25 -9.75,9.75 -22.875,15.375 -13.125,5.625 -28.125,5.625 l -70.125,0 0,147.75 q 0,2.625 -2.25,4.125 -1.875,1.5 -4.125,1.5 -2.25,0 -4.125,-1.5 -1.875,-1.875 -1.875,-4.125 l 0,-280.5 -24.375,0 0,282.375 q 0,2.625 -1.875,4.125 -1.875,1.5 -4.125,1.5 -2.25,0 -4.125,-1.5 -1.5,-1.875 -1.5,-4.125 l 0,-288.375 q 0,-6 5.625,-6 l 112.875,0 q 15,0 28.125,6 13.125,5.625 22.875,15.375 9.75,9.75 15.375,22.875 6,13.125 6,28.125 z m -11.625,0.375 q 0,-12.375 -4.875,-23.25 -4.875,-11.25 -13.125,-19.5 -8.25,-8.25 -19.5,-13.125 -10.875,-4.875 -23.25,-4.875 l -70.125,0 0,121.5 70.125,0 q 12.375,0 23.25,-4.875 11.25,-4.875 19.5,-13.125 8.25,-8.25 13.125,-19.125 4.875,-11.25 4.875,-23.625 z"
             style="font-style:normal;font-variant:normal;font-weight:normal;font-stretch:normal;font-size:medium;line-height:125%;font-family:Anders;-inkscape-font-specification:Anders;letter-spacing:8.90999985px;word-spacing:0px;fill:#ffffff;fill-opacity:1;stroke:none;stroke-width:10;stroke-linecap:butt;stroke-linejoin:miter;stroke-miterlimit:4;stroke-dasharray:none;stroke-opacity:1"
             id="path5095"
             inkscape:connector-curvature="0" />
          <path
             d="m 2739.0287,-145.76221 q 0,5.625 -6,5.625 l -178.125,0 q -5.625,0 -5.625,-5.625 l 0,-286.875 q 0,-2.25 1.5,-3.75 1.875,-1.875 4.125,-1.875 2.25,0 3.75,1.875 1.875,1.5 1.875,3.75 l 0,281.25 25.125,0 0,-282.75 q 0,-2.25 1.875,-4.125 1.875,-1.875 4.125,-1.875 6,0 6,6 l 0,282.75 135.375,0 q 6,0 6,5.625 z"
             style="font-style:normal;font-variant:normal;font-weight:normal;font-stretch:normal;font-size:medium;line-height:125%;font-family:Anders;-inkscape-font-specification:Anders;letter-spacing:8.90999985px;word-spacing:0px;fill:#ffffff;fill-opacity:1;stroke:none;stroke-width:10;stroke-linecap:butt;stroke-linejoin:miter;stroke-miterlimit:4;stroke-dasharray:none;stroke-opacity:1"
             id="path5097"
             inkscape:connector-curvature="0" />
          <path
             d="m 3022.8282,-145.76221 q 0,2.25 -1.875,4.125 -1.5,1.5 -3.75,1.5 -4.5,0 -5.625,-3.75 l -109.125,-275.25 -12.375,31.875 q 1.5,3 6.375,15 4.875,12 12,29.625 7.125,17.25 15.375,38.625 8.25,21 16.875,42.75 8.625,21.75 16.5,42.375 8.25,20.625 14.25,36.75 6.375,16.125 10.125,26.25 3.75,9.75 3.75,10.125 0,4.125 -3.75,5.25 -0.75,0 -1.125,0.375 -0.375,0 -1.125,0 -3.75,0 -5.25,-3.75 l -90,-227.25 -87.375,227.25 q -1.5,3.75 -5.625,3.75 -0.75,0 -1.125,0 0,-0.375 -0.75,-0.375 -3.75,-1.125 -3.75,-5.625 0,-0.375 4.5,-12.375 4.5,-12 11.625,-31.125 7.5,-19.125 16.875,-43.875 9.75,-24.75 19.5,-50.625 10.125,-26.25 19.875,-51.75 10.125,-25.5 18,-46.5 8.25,-21.375 13.875,-35.625 5.625,-14.625 7.125,-18.75 1.5,-3.375 5.625,-3.375 4.125,0 5.25,3.375 1.5,4.125 7.125,18.75 6,14.25 14.25,35.625 8.25,21 18.375,46.5 10.5,25.5 20.625,51.75 10.5,25.875 20.25,50.625 10.125,24.75 17.625,44.25 7.5,19.125 12,31.125 4.875,12 4.875,12.375 z"
             style="font-style:normal;font-variant:normal;font-weight:normal;font-stretch:normal;font-size:medium;line-height:125%;font-family:Anders;-inkscape-font-specification:Anders;letter-spacing:8.90999985px;word-spacing:0px;fill:#ffffff;fill-opacity:1;stroke:none;stroke-width:10;stroke-linecap:butt;stroke-linejoin:miter;stroke-miterlimit:4;stroke-dasharray:none;stroke-opacity:1"
             id="path5099"
             inkscape:connector-curvature="0" />
          <path
             d="m 3278.2275,-220.76221 q 0,20.25 -9,35.625 -8.625,15 -23.25,25.125 -14.25,9.75 -32.25,15 -17.625,4.875 -35.625,4.875 -31.875,0 -60.375,-12.375 -28.5,-12.375 -51,-33.75 -2.25,-2.25 -2.25,-4.125 0,-2.25 1.875,-4.125 1.875,-2.25 4.5,-2.25 1.875,0 3.75,1.875 23.25,19.5 48,31.5 25.125,11.625 56.25,11.625 15.75,0 31.125,-4.125 15.75,-4.5 28.125,-13.125 12.75,-9 20.25,-22.125 7.875,-13.125 7.875,-30.75 0,-14.25 -6.75,-24.375 -6.75,-10.5 -17.625,-17.625 -10.875,-7.5 -25.125,-12.375 -13.875,-4.875 -28.125,-8.25 -14.25,-3.75 -28.125,-6.375 -13.5,-2.625 -23.625,-5.25 -12.375,-3.375 -24,-9 -11.25,-6 -19.875,-14.625 -8.625,-8.625 -13.875,-19.875 -4.875,-11.625 -4.875,-25.875 0,-19.125 8.625,-33 9,-14.25 22.875,-23.25 14.25,-9.375 31.125,-13.875 17.25,-4.875 33.75,-4.875 10.5,0 23.625,2.25 13.5,2.25 26.625,6.75 13.5,4.125 25.125,10.125 11.625,6 19.5,13.5 1.125,1.125 1.5,1.875 0.75,0.75 0.75,2.625 0,2.25 -1.875,4.125 -1.875,1.875 -4.125,1.875 -0.75,0 -3,-1.125 -1.875,-1.125 -4.5,-2.625 -2.25,-1.875 -4.5,-3 -1.875,-1.5 -3,-2.25 -16.875,-10.125 -36,-16.125 -19.125,-6 -39.375,-6 -14.25,0 -29.25,3.75 -15,3.375 -27.75,10.875 -12.375,7.5 -20.625,19.5 -7.875,11.625 -7.875,28.125 0,18 8.25,29.625 8.25,11.25 21.75,18.75 13.5,7.125 30.75,11.625 17.25,4.5 35.25,8.625 18.375,4.125 35.625,9 17.25,4.875 30.75,13.5 13.5,8.25 21.75,21.375 8.25,12.75 8.25,33 z"
             style="font-style:normal;font-variant:normal;font-weight:normal;font-stretch:normal;font-size:medium;line-height:125%;font-family:Anders;-inkscape-font-specification:Anders;letter-spacing:8.90999985px;word-spacing:0px;fill:#ffffff;fill-opacity:1;stroke:none;stroke-width:10;stroke-linecap:butt;stroke-linejoin:miter;stroke-miterlimit:4;stroke-dasharray:none;stroke-opacity:1"
             id="path5101"
             inkscape:connector-curvature="0" />
          <path
             d="m 3639.0516,-434.88721 q 0,1.875 -0.375,2.25 l 0,286.875 q 0,2.25 -1.875,4.125 -1.5,1.5 -3.75,1.5 -2.25,0 -3.75,-1.5 -1.5,-1.875 -1.5,-4.125 l 0,-270.75 -129.375,181.125 q 1.5,2.625 6.75,9.75 5.25,7.125 12,16.875 7.125,9.375 15,19.875 7.875,10.125 14.25,19.5 6.375,9 10.5,15.375 4.5,6.375 4.5,7.875 0,2.625 -1.875,4.5 -1.875,1.5 -4.125,1.5 -3,0 -4.5,-2.25 l -206.25,-287.25 q -1.125,-1.5 -1.125,-3.75 0,-2.25 1.5,-3.75 1.5,-1.875 4.125,-1.875 3.375,0 4.875,2.625 l 137.25,191.25 137.25,-192.75 q 1.5,-2.25 4.125,-2.25 2.25,0 4.125,1.5 2.25,1.5 2.25,3.75 z m -123,289.125 q 0,2.25 -1.875,4.125 -1.875,1.5 -4.125,1.5 -3,0 -4.5,-2.25 l -150.75,-211.5 0,206.25 q 0,2.625 -1.875,4.125 -1.875,1.5 -4.125,1.5 -2.25,0 -4.125,-1.5 -1.875,-1.875 -1.875,-4.125 l 0,-223.5 q 0,-2.625 1.5,-4.875 1.5,-2.25 4.5,-2.25 3,0 4.5,2.625 2.625,3.75 10.875,15.375 8.625,11.25 20.25,27.75 12,16.5 26.25,36.375 14.625,19.875 29.25,40.5 14.625,20.25 28.125,39.75 13.875,19.125 24.375,34.5 10.875,15 17.25,24.75 6.375,9.75 6.375,10.875 z"
             style="font-style:normal;font-variant:normal;font-weight:normal;font-stretch:normal;font-size:medium;line-height:125%;font-family:Anders;-inkscape-font-specification:Anders;letter-spacing:8.90999985px;word-spacing:0px;fill:#ffffff;fill-opacity:1;stroke:none;stroke-width:10;stroke-linecap:butt;stroke-linejoin:miter;stroke-miterlimit:4;stroke-dasharray:none;stroke-opacity:1"
             id="path5103"
             inkscape:connector-curvature="0" />
          <path
             d="m 3948.6061,-145.76221 q 0,2.25 -1.875,4.125 -1.5,1.5 -3.75,1.5 -4.5,0 -5.625,-3.75 l -109.125,-275.25 -12.375,31.875 q 1.5,3 6.375,15 4.875,12 12,29.625 7.125,17.25 15.375,38.625 8.25,21 16.875,42.75 8.625,21.75 16.5,42.375 8.25,20.625 14.25,36.75 6.375,16.125 10.125,26.25 3.75,9.75 3.75,10.125 0,4.125 -3.75,5.25 -0.75,0 -1.125,0.375 -0.375,0 -1.125,0 -3.75,0 -5.25,-3.75 l -90,-227.25 -87.375,227.25 q -1.5,3.75 -5.625,3.75 -0.75,0 -1.125,0 0,-0.375 -0.75,-0.375 -3.75,-1.125 -3.75,-5.625 0,-0.375 4.5,-12.375 4.5,-12 11.625,-31.125 7.5,-19.125 16.875,-43.875 9.75,-24.75 19.5,-50.625 10.125,-26.25 19.875,-51.75 10.125,-25.5 18,-46.5 8.25,-21.375 13.875,-35.625 5.625,-14.625 7.125,-18.75 1.5,-3.375 5.625,-3.375 4.125,0 5.25,3.375 1.5,4.125 7.125,18.75 6,14.25 14.25,35.625 8.25,21 18.375,46.5 10.5,25.5 20.625,51.75 10.5,25.875 20.25,50.625 10.125,24.75 17.625,44.25 7.5,19.125 12,31.125 4.875,12 4.875,12.375 z"
             style="font-style:normal;font-variant:normal;font-weight:normal;font-stretch:normal;font-size:medium;line-height:125%;font-family:Anders;-inkscape-font-specification:Anders;letter-spacing:8.90999985px;word-spacing:0px;fill:#ffffff;fill-opacity:1;stroke:none;stroke-width:10;stroke-linecap:butt;stroke-linejoin:miter;stroke-miterlimit:4;stroke-dasharray:none;stroke-opacity:1"
             id="path5105"
             inkscape:connector-curvature="0" />
        </g>
        <g
           id="g5056"
           transform="matrix(5.63125,0,0,5.63125,882.39069,-481.7872)"
           style="stroke:none">
          <rect
             id="rect5038"
             y="16"
             x="0"
             height="48"
             width="48"
             style="opacity:0;stroke:none" />
          <rect
             id="rect5040"
             transform="matrix(0,-1,-1,0,0,0)"
             ry="2.8"
             rx="2.8"
             y="-60"
             x="-61"
             height="56"
             width="56"
             style="opacity:0.2;stroke:none" />
          <rect
             id="rect5042"
             transform="matrix(0,-1,-1,0,0,0)"
             ry="2.8"
             rx="2.8"
             y="-60"
             x="-60"
             height="56"
             width="56"
             style="fill:#2c9bff;stroke:none" />
          <path
             id="path5044"
             d="m 36,12.00001 -8,1.210938 0,28.9375 8,-2.148438 0,-11.179688 8,13.179688 8,-3 -10,-12 L 52.003906,14.003916 44.242188,12.00001 36,25.117198 Z m -16.289062,7.847656 c -0.189184,0 -0.378371,0.07368 -0.523438,0.21875 l -3.144531,3.144532 c -0.290135,0.290134 -0.220288,0.704614 0,1.05078 l 3.253906,5.109376 c -0.241085,0.500442 -0.449846,1.01582 -0.625,1.542968 -0.0077,0.02268 -0.01978,0.04368 -0.02734,0.0664 l -5.902344,1.3125 C 12.341647,32.381998 12,32.624856 12,33.035166 l 0,1.964844 0,1.964844 c 0,0.41031 0.341647,0.65318 0.742188,0.742188 l 5.902343,1.3125 c 0.01292,0.0388 0.03357,0.07462 0.04687,0.11328 0.17049,0.512084 0.372704,1.013054 0.605469,1.5 l -3.253906,5.10547 c -0.220288,0.346166 -0.290135,0.760646 0,1.05078 l 3.144532,3.144532 c 0.290135,0.290134 0.756735,0.290134 1.046876,0 l 5.101562,-3.25 c 0.501518,0.243898 1.01821,0.455272 1.546874,0.632812 0.0347,0.0122 0.06678,0.03108 0.10156,0.04296 l 1.308592,5.898436 C 28.29296,53.668124 28.62484,54 29.035148,54 l 4.441406,0 c 0.41031,0 0.65318,-0.341648 0.742188,-0.742188 l 1.308594,-6.078124 c 0.601208,-0.226026 1.184836,-0.496298 1.746094,-0.808594 l 4.980468,3.5625 c 0.290136,0.290134 0.756742,0.290134 1.046876,0 l 3.14453,-3.144532 c 0.290136,-0.290134 0.220288,-0.704614 0,-1.05078 l -1.89453,-2.875 -0.19922,0.07422 c -0.450502,0.16922 -0.95765,-0.0064 -1.20703,-0.417968 l -1.99218,-3.281242 C 39.492472,43.208682 35.572478,46.00001 31,46.00001 c -6.075132,0 -11,-4.924868 -11,-11 0,-4.66184 2.905598,-8.6367 7,-10.238282 l 0,-2.191406 -0.0156,0.07032 c -0.04416,0.015 -0.0849,0.03914 -0.1289,0.05468 -0.52165,0.17324 -1.03179,0.379376 -1.527344,0.617188 l -5.09378,-3.246094 c -0.145072,-0.145067 -0.334254,-0.21875 -0.523438,-0.21875 z"
             style="opacity:0.2;stroke:none"
             inkscape:connector-curvature="0" />
          <path
             id="path5046"
             d="m 36,11.00001 -8,1.210938 0,28.9375 8,-2.148438 0,-11.179688 8,13.179688 8,-3 -10,-12 L 52.003906,13.003916 44.242188,11.00001 36,24.117198 Z m -16.289062,7.847656 c -0.189184,0 -0.378371,0.07368 -0.523438,0.21875 l -3.144531,3.144532 c -0.290135,0.290134 -0.220288,0.704614 0,1.05078 l 3.253906,5.109376 c -0.241085,0.500442 -0.449846,1.01582 -0.625,1.542968 -0.0077,0.02268 -0.01978,0.04368 -0.02734,0.0664 l -5.902344,1.3125 C 12.341647,31.381998 12,31.624856 12,32.035166 l 0,1.964844 0,1.964844 c 0,0.41031 0.341647,0.65318 0.742188,0.742188 l 5.902343,1.3125 c 0.01292,0.0388 0.03357,0.07462 0.04687,0.11328 0.17049,0.512084 0.372704,1.013054 0.605469,1.5 l -3.253906,5.10547 c -0.220288,0.346166 -0.290135,0.760646 0,1.05078 l 3.144532,3.144532 c 0.290135,0.290134 0.756735,0.290134 1.046876,0 l 5.101562,-3.25 c 0.501518,0.243898 1.01821,0.455272 1.546874,0.632812 0.0347,0.0122 0.06678,0.03108 0.10156,0.04296 l 1.308592,5.898436 C 28.29296,52.668124 28.62484,53 29.035148,53 l 4.441406,0 c 0.41031,0 0.65318,-0.341648 0.742188,-0.742188 l 1.308594,-6.078124 c 0.601208,-0.226026 1.184836,-0.496298 1.746094,-0.808594 l 4.980468,3.5625 c 0.290136,0.290134 0.756742,0.290134 1.046876,0 l 3.14453,-3.144532 c 0.290136,-0.290134 0.220288,-0.704614 0,-1.05078 l -1.89453,-2.875 -0.19922,0.07422 c -0.450502,0.16922 -0.95765,-0.0064 -1.20703,-0.417968 l -1.99218,-3.281242 C 39.492472,42.208682 35.572478,45.00001 31,45.00001 c -6.075132,0 -11,-4.924868 -11,-11 0,-4.66184 2.905598,-8.6367 7,-10.238282 l 0,-2.191406 -0.0156,0.07032 c -0.04416,0.015 -0.0849,0.03914 -0.1289,0.05468 -0.52165,0.17324 -1.03179,0.379376 -1.527344,0.617188 l -5.09378,-3.246094 c -0.145072,-0.145067 -0.334254,-0.21875 -0.523438,-0.21875 z"
             style="fill:#ffffff;stroke:none"
             inkscape:connector-curvature="0" />
          <path
             id="path5048"
             d="M 6.8007812,4 C 5.2495812,4 4,5.2495812 4,6.8007812 l 0,1 C 4,6.2495813 5.2495812,5 6.8007812,5 L 57.199219,5 C 58.750419,5 60,6.2495812 60,7.8007812 l 0,-1 C 60,5.2495813 58.750419,4 57.199219,4 L 6.8007812,4 Z"
             style="opacity:0.2;fill:#ffffff;stroke:none"
             inkscape:connector-curvature="0" />
        </g>
        <rect
           style="opacity:1;fill:#ffffff;fill-opacity:1;fill-rule:evenodd;stroke:none;stroke-width:10;stroke-linejoin:miter;stroke-miterlimit:4;stroke-dasharray:none;stroke-opacity:1"
           id="rect5116"
           width="3213.4651"
           height="7.3223305"
           x="827.14099"
           y="28.2981"
           transform="scale(1,-1)" />
        <text
           xml:space="preserve"
           style="font-style:normal;font-weight:normal;font-size:75px;line-height:125%;font-family:sans-serif;letter-spacing:8.90999985px;word-spacing:0px;fill:#ffffff;fill-opacity:1;stroke:none;stroke-width:1px;stroke-linecap:butt;stroke-linejoin:miter;stroke-opacity:1"
           x="3033.9155"
           y="164.86215"
           id="text5136"
           sodipodi:linespacing="125%"><tspan
             sodipodi:role="line"
             id="tspan5138"
             x="3033.9155"
             y="164.86215"
             style="font-style:normal;font-variant:normal;font-weight:normal;font-stretch:normal;font-size:125px;font-family:'Lobster Two';-inkscape-font-specification:'Lobster Two';fill:#ffffff;stroke:none">Experience freedom</tspan></text>
      </g>
    </g>
  </g>
</svg>
